<svg data-v-5f19e91b="" xmlns="http://www.w3.org/2000/svg" width="398" height="51" viewBox="0 0 398 51"><!----> <!----> <!----> <g data-v-5f19e91b="" id="cd17d982-1e18-8899-cab1-ce1e3749f7c2" fill="black" transform="matrix(4.437869985265308,0,0,4.437869985265308,80.57067545180826,-18.770756020782564)"><path d="M8.64 14.06L8.64 5.28C8.64 4.03 7.98 3.42 6.68 3.42L2.55 3.42C1.25 3.42 0.59 4.03 0.59 5.28L0.59 14.06L3.00 14.06L3.00 9.69L6.22 9.69L6.22 14.06ZM6.22 7.45L3.00 7.45L3.00 6.44C3.00 6.16 3.14 6.02 3.42 6.02L5.80 6.02C6.08 6.02 6.22 6.16 6.22 6.44ZM20.36 14.06L20.36 11.38L16.51 11.38L16.51 3.42L14.08 3.42L14.08 14.06ZM23.07 5.17C23.42 5.17 23.60 4.98 23.60 4.62L23.60 3.68C23.60 3.32 23.42 3.14 23.07 3.14L21.76 3.14C21.38 3.14 21.20 3.32 21.20 3.68L21.20 4.62C21.20 4.98 21.36 5.17 21.70 5.17ZM23.62 14.06L23.62 5.84L21.20 5.84L21.20 14.06ZM29.16 14.06L29.16 11.63L27.64 11.63C27.40 11.63 27.27 11.48 27.27 11.16L27.27 8.13L29.18 8.13L29.18 5.92L27.27 5.92L27.27 3.56L24.85 3.56L24.85 12.25C24.85 13.45 25.52 14.06 26.85 14.06ZM34.40 14.06L34.40 11.63L32.87 11.63C32.63 11.63 32.51 11.48 32.51 11.16L32.51 8.13L34.41 8.13L34.41 5.92L32.51 5.92L32.51 3.56L30.09 3.56L30.09 12.25C30.09 13.45 30.76 14.06 32.09 14.06ZM37.74 14.06L37.74 3.42L35.32 3.42L35.32 14.06ZM43.95 8.95C43.95 9.13 43.85 9.23 43.67 9.23L41.62 9.23C41.44 9.23 41.34 9.13 41.34 8.95L41.34 8.37C41.34 8.19 41.44 8.09 41.62 8.09L43.67 8.09C43.85 8.09 43.95 8.19 43.95 8.37ZM46.00 14.06L46.00 11.76L41.76 11.76C41.48 11.76 41.34 11.62 41.34 11.34L41.34 10.72C41.47 10.79 41.62 10.82 41.78 10.82L44.56 10.82C45.75 10.82 46.35 10.19 46.35 8.92L46.35 7.71C46.35 6.47 45.75 5.84 44.56 5.84L40.81 5.84C39.55 5.84 38.92 6.48 38.92 7.77L38.92 12.12C38.92 13.41 39.58 14.06 40.88 14.06ZM56.98 7.25C56.98 7.53 56.84 7.67 56.56 7.67L54.12 7.67L54.12 6.09L56.56 6.09C56.84 6.09 56.98 6.23 56.98 6.51ZM54.12 14.06L54.12 10.04L57.47 10.04C58.74 10.04 59.39 9.42 59.39 8.20L59.39 5.40C59.39 4.07 58.74 3.42 57.47 3.42L51.70 3.42L51.70 14.06ZM62.22 5.17C62.57 5.17 62.75 4.98 62.75 4.62L62.75 3.68C62.75 3.32 62.57 3.14 62.22 3.14L60.90 3.14C60.52 3.14 60.34 3.32 60.34 3.68L60.34 4.62C60.34 4.98 60.51 5.17 60.84 5.17ZM62.76 14.06L62.76 5.84L60.34 5.84L60.34 14.06ZM69.47 16.66C70.74 16.66 71.39 16.00 71.39 14.71L71.39 5.84L65.90 5.84C64.60 5.84 63.94 6.45 63.94 7.71L63.94 11.30C63.94 12.59 64.58 13.23 65.86 13.23L68.96 13.23L68.96 14.15C68.96 14.43 68.82 14.57 68.54 14.57L64.27 14.57L64.27 16.66ZM68.96 11.03L66.78 11.03C66.50 11.03 66.36 10.89 66.36 10.61L66.36 8.65C66.36 8.36 66.50 8.20 66.78 8.20L68.96 8.20Z"></path></g> <!----> <g data-v-5f19e91b="" id="0b5ae6a1-d28a-c518-2eeb-ed7ff506ca4e" transform="matrix(0.7477990892198351,0,0,0.7477990892198351,-5.665174528018014,-9.595513711378345)" stroke="none" fill="black"><defs><g id="b"><path d=" M 49.85 45.05 Q 50.05 46.2 50.35 46.7 50.35 46.8 50.75 47.45 L 51.4 48 51.85 48.3 Q 52.65 48.8 53.7 48.6 54.6 48.4 55.45 47.85 L 55.75 47.6 Q 55.9 47.55 55.95 47.3 56.4 46.6 56.5 46.2 L 56.65 44.7 56.55 44.1 56.4 43.7 Q 56.1 43.25 55.4 43.2 54.75 43.15 54.4 43.6 54.15 43.75 54.15 44 L 54.05 44.35 54 45.1 53.9 45.6 Q 53.75 46.15 53.05 46.05 52.55 45.5 52.4 44.85 L 52.2 44.15 Q 51.9 43.55 51.3 43.4 50.7 43.3 50.25 43.65 49.85 43.9 49.8 44.55 L 49.85 45.05 M 58.45 29.85 L 57.85 30.35 57.35 31.15 Q 56.85 32 56.75 32.35 56.65 32.65 56.65 33.25 56.65 35.85 57.55 36.95 57.9 37.5 58.85 38.2 59.85 38.9 60.65 39.1 L 63.4 39.1 Q 63.95 39 64.75 38.4 66.2 37.25 66.75 35.5 67.4 33.2 66.2 31.3 64.85 29.15 61.7 28.8 60.85 28.7 60.25 28.85 59.55 29.05 58.45 29.85 M 63.7 33.8 L 63.8 34 63.85 34.2 63.9 34.55 63.75 35.1 63.65 35.3 63.5 35.4 63.25 35.65 Q 62.95 35.8 62.6 35.8 62.1 35.8 61.8 35.5 61.5 35.3 61.35 34.95 L 61.25 34.8 61.25 34.15 61.3 33.95 61.45 33.65 61.65 33.45 61.8 33.35 62 33.25 62.75 33.15 Q 63.2 33.25 63.35 33.4 L 63.7 33.8 M 60 31.35 L 60.15 31.45 60.25 31.7 60.2 32 Q 60.25 32.05 60.2 32.1 L 60.15 32.2 60.05 32.35 Q 59.9 32.5 59.7 32.5 59.5 32.55 59.3 32.45 L 59.05 32.25 Q 58.8 32 58.8 31.8 L 58.9 31.55 59 31.4 59.1 31.35 59.15 31.3 59.45 31.2 59.45 31.15 Q 59.7 31.15 60 31.35 M 64.3 36.55 Q 64.6 36.45 64.75 36.7 L 64.8 36.95 64.75 37.15 Q 64.65 37.35 64.55 37.35 64.4 37.45 64.25 37.3 L 64.2 37.25 64.15 37.15 64.15 36.85 64.2 36.65 64.3 36.55 M 44.7 40.65 Q 45.25 40.55 46.05 39.95 47.5 38.8 48.05 37.05 48.7 34.75 47.5 32.85 46.15 30.7 43 30.35 42.15 30.25 41.55 30.4 40.85 30.6 39.75 31.4 L 39.15 31.9 38.65 32.7 Q 38.15 33.55 38.05 33.9 37.95 34.2 37.95 34.8 37.95 37.4 38.85 38.5 39.2 39.05 40.15 39.75 41.15 40.45 41.95 40.65 L 44.7 40.65 M 42.2 35.2 L 42.25 35.05 42.4 34.9 42.55 34.7 42.7 34.65 42.8 34.55 42.95 34.5 Q 43.65 34.25 44.2 34.7 L 44.45 35.05 44.55 35.25 44.6 35.45 44.6 35.7 Q 44.7 35.85 44.6 36.1 L 44.5 36.45 44.4 36.6 44.3 36.7 44.2 36.85 43.95 37.05 Q 43.75 37.15 43.3 37.15 L 42.85 37.05 42.65 36.9 42.45 36.85 42.35 36.6 42.25 36.5 42.2 36.4 42.1 35.8 42.2 35.2 M 41 33.1 L 41.1 33.3 41.1 33.5 41 33.8 Q 40.9 34.05 40.85 34.05 L 40.55 34.2 40.2 34.15 40 34.05 Q 39.75 33.8 39.7 33.6 39.7 33.4 39.9 33.2 L 40.05 32.95 Q 40.25 32.8 40.45 32.85 L 40.5 32.75 40.9 32.95 41 33.05 41 33.1 M 45.6 37.8 L 45.65 37.7 45.75 37.65 45.8 37.6 46.05 37.7 Q 46.2 37.8 46.2 37.95 L 46.15 38.05 46.1 38.1 45.95 38.2 45.8 38.2 45.6 38.1 45.6 37.8 Z"></path></g><g id="a"><path fill="#000000" stroke="none" d=" M 89.65 48.3 Q 92.15 45 92.15 40.7 92.15 33 84.45 25.85 76.8 18.65 59.5 14.6 L 53.05 14.15 Q 32.95 15.15 19.15 27.25 7.65 37.45 7.65 46.8 7.65 50.95 9.7 54.95 12.35 60.05 18.45 62.85 L 18.65 67.65 Q 18.65 70.85 18.3 74.55 17.95 78.25 17.9 78.65 17.75 79 18.15 80.25 18.5 81.5 19.75 81.45 21 81.3 23.65 77.35 26.4 72.7 27.35 70.9 28.35 69.1 30.4 67 32.45 64.9 34.05 63.7 35.65 64.35 37.65 64.8 39.55 65.2 41.8 65.65 44.05 66.05 48.75 65.95 53.4 65.8 63.5 62.75 73.55 59.65 79.5 56.25 86.7 52.15 89.65 48.3 M 61.5 19.35 Q 72.4 21.048046875 80.65 27.85 88.8998046875 34.6556640625 88.85 40.95 88.8 47.294140625 78.1 53.25 67.4498046875 59.2017578125 57.15 61 46.85 62.75 40.6 61.5 L 34.25 59.9 33.85 59.9 Q 32.45 59.6 28.25 63.8 23.65 68.4 20.9 75.3 21.85 67.15 21.7 64.75 21.8 61.7 21.85 60.45 21.85 59.10078125 20.8 58.95 19.8 58.8470703125 18.1 58.3 16.446875 57.7484375 13.8 55.3 11.2091796875 52.9099609375 11.2 46.1 11.1810546875 39.2888671875 23.15 29 35.12421875 18.7037109375 51.5 18.2 57.1 18.35 61.5 19.35 Z"></path></g></defs><g transform="matrix( 1, 0, 0, 1, 0,0) "><use xmlns:xlink="http://www.w3.org/1999/xlink" xlink:href="#b"></use></g><g transform="matrix( 1, 0, 0, 1, 0,0) "><use xmlns:xlink="http://www.w3.org/1999/xlink" xlink:href="#a"></use></g></g></svg>