<svg data-v-1084b650="" xmlns="http://www.w3.org/2000/svg" viewBox="0 0 300 300"><!----> <!----> <rect data-v-1084b650="" fill="#ffffff" x="0" y="0" width="300px" height="300px" class="logo-background-square"></rect> <!----> <linearGradient data-v-1084b650="" gradientTransform="rotate(25)" id="3690525d-86c6-9a37-0e1d-a1abfebf757d" x1="0%" y1="0%" x2="100%" y2="0%"><stop data-v-1084b650="" offset="0%" style="stop-color: rgb(50, 20, 45); stop-opacity: 1;"></stop> <stop data-v-1084b650="" offset="100%" style="stop-color: rgb(50, 20, 45); stop-opacity: 1;"></stop></linearGradient> <g data-v-1084b650="" id="439ba7d9-378f-4e7a-bddb-c9cd5c46ae69" fill="url(#3690525d-86c6-9a37-0e1d-a1abfebf757d)" stroke="url(#3690525d-86c6-9a37-0e1d-a1abfebf757d)" transform="matrix(0.8499999999999999,0,0,0.8499999999999999,22.754992866516133,28.10755386352541)"><svg xmlns="http://www.w3.org/2000/svg" xmlns:xlink="http://www.w3.org/1999/xlink" version="1.1" preserveAspectRatio="none" x="0px" y="0px" viewBox="0 0 100 100"><defs><g id="b"><path d=" M 49.85 45.05 Q 50.05 46.2 50.35 46.7 50.35 46.8 50.75 47.45 L 51.4 48 51.85 48.3 Q 52.65 48.8 53.7 48.6 54.6 48.4 55.45 47.85 L 55.75 47.6 Q 55.9 47.55 55.95 47.3 56.4 46.6 56.5 46.2 L 56.65 44.7 56.55 44.1 56.4 43.7 Q 56.1 43.25 55.4 43.2 54.75 43.15 54.4 43.6 54.15 43.75 54.15 44 L 54.05 44.35 54 45.1 53.9 45.6 Q 53.75 46.15 53.05 46.05 52.55 45.5 52.4 44.85 L 52.2 44.15 Q 51.9 43.55 51.3 43.4 50.7 43.3 50.25 43.65 49.85 43.9 49.8 44.55 L 49.85 45.05 M 58.45 29.85 L 57.85 30.35 57.35 31.15 Q 56.85 32 56.75 32.35 56.65 32.65 56.65 33.25 56.65 35.85 57.55 36.95 57.9 37.5 58.85 38.2 59.85 38.9 60.65 39.1 L 63.4 39.1 Q 63.95 39 64.75 38.4 66.2 37.25 66.75 35.5 67.4 33.2 66.2 31.3 64.85 29.15 61.7 28.8 60.85 28.7 60.25 28.85 59.55 29.05 58.45 29.85 M 63.7 33.8 L 63.8 34 63.85 34.2 63.9 34.55 63.75 35.1 63.65 35.3 63.5 35.4 63.25 35.65 Q 62.95 35.8 62.6 35.8 62.1 35.8 61.8 35.5 61.5 35.3 61.35 34.95 L 61.25 34.8 61.25 34.15 61.3 33.95 61.45 33.65 61.65 33.45 61.8 33.35 62 33.25 62.75 33.15 Q 63.2 33.25 63.35 33.4 L 63.7 33.8 M 60 31.35 L 60.15 31.45 60.25 31.7 60.2 32 Q 60.25 32.05 60.2 32.1 L 60.15 32.2 60.05 32.35 Q 59.9 32.5 59.7 32.5 59.5 32.55 59.3 32.45 L 59.05 32.25 Q 58.8 32 58.8 31.8 L 58.9 31.55 59 31.4 59.1 31.35 59.15 31.3 59.45 31.2 59.45 31.15 Q 59.7 31.15 60 31.35 M 64.3 36.55 Q 64.6 36.45 64.75 36.7 L 64.8 36.95 64.75 37.15 Q 64.65 37.35 64.55 37.35 64.4 37.45 64.25 37.3 L 64.2 37.25 64.15 37.15 64.15 36.85 64.2 36.65 64.3 36.55 M 44.7 40.65 Q 45.25 40.55 46.05 39.95 47.5 38.8 48.05 37.05 48.7 34.75 47.5 32.85 46.15 30.7 43 30.35 42.15 30.25 41.55 30.4 40.85 30.6 39.75 31.4 L 39.15 31.9 38.65 32.7 Q 38.15 33.55 38.05 33.9 37.95 34.2 37.95 34.8 37.95 37.4 38.85 38.5 39.2 39.05 40.15 39.75 41.15 40.45 41.95 40.65 L 44.7 40.65 M 42.2 35.2 L 42.25 35.05 42.4 34.9 42.55 34.7 42.7 34.65 42.8 34.55 42.95 34.5 Q 43.65 34.25 44.2 34.7 L 44.45 35.05 44.55 35.25 44.6 35.45 44.6 35.7 Q 44.7 35.85 44.6 36.1 L 44.5 36.45 44.4 36.6 44.3 36.7 44.2 36.85 43.95 37.05 Q 43.75 37.15 43.3 37.15 L 42.85 37.05 42.65 36.9 42.45 36.85 42.35 36.6 42.25 36.5 42.2 36.4 42.1 35.8 42.2 35.2 M 41 33.1 L 41.1 33.3 41.1 33.5 41 33.8 Q 40.9 34.05 40.85 34.05 L 40.55 34.2 40.2 34.15 40 34.05 Q 39.75 33.8 39.7 33.6 39.7 33.4 39.9 33.2 L 40.05 32.95 Q 40.25 32.8 40.45 32.85 L 40.5 32.75 40.9 32.95 41 33.05 41 33.1 M 45.6 37.8 L 45.65 37.7 45.75 37.65 45.8 37.6 46.05 37.7 Q 46.2 37.8 46.2 37.95 L 46.15 38.05 46.1 38.1 45.95 38.2 45.8 38.2 45.6 38.1 45.6 37.8 Z"></path></g><g id="a"><path fill="#000000" stroke="none" d=" M 89.65 48.3 Q 92.15 45 92.15 40.7 92.15 33 84.45 25.85 76.8 18.65 59.5 14.6 L 53.05 14.15 Q 32.95 15.15 19.15 27.25 7.65 37.45 7.65 46.8 7.65 50.95 9.7 54.95 12.35 60.05 18.45 62.85 L 18.65 67.65 Q 18.65 70.85 18.3 74.55 17.95 78.25 17.9 78.65 17.75 79 18.15 80.25 18.5 81.5 19.75 81.45 21 81.3 23.65 77.35 26.4 72.7 27.35 70.9 28.35 69.1 30.4 67 32.45 64.9 34.05 63.7 35.65 64.35 37.65 64.8 39.55 65.2 41.8 65.65 44.05 66.05 48.75 65.95 53.4 65.8 63.5 62.75 73.55 59.65 79.5 56.25 86.7 52.15 89.65 48.3 M 61.5 19.35 Q 72.4 21.048046875 80.65 27.85 88.8998046875 34.6556640625 88.85 40.95 88.8 47.294140625 78.1 53.25 67.4498046875 59.2017578125 57.15 61 46.85 62.75 40.6 61.5 L 34.25 59.9 33.85 59.9 Q 32.45 59.6 28.25 63.8 23.65 68.4 20.9 75.3 21.85 67.15 21.7 64.75 21.8 61.7 21.85 60.45 21.85 59.10078125 20.8 58.95 19.8 58.8470703125 18.1 58.3 16.446875 57.7484375 13.8 55.3 11.2091796875 52.9099609375 11.2 46.1 11.1810546875 39.2888671875 23.15 29 35.12421875 18.7037109375 51.5 18.2 57.1 18.35 61.5 19.35 Z"></path></g></defs><g transform="matrix( 1, 0, 0, 1, 0,0) "><use xlink:href="#b"></use></g><g transform="matrix( 1, 0, 0, 1, 0,0) "><use xlink:href="#a"></use></g></svg></g></svg>